<svg width="120.137" height="19.6826" viewBox="0 0 120.137 19.6826" fill="none" xmlns="http://www.w3.org/2000/svg">
<g id="Group">
<path id="Vector" d="M0.752231 19.6826C0.541274 19.6826 0.363626 19.61 0.219287 19.4622C0.072172 19.3143 0 19.1358 0 18.9266V0.771584C0 0.406141 0.1721 0.160652 0.519069 0.0434871C0.874365 -0.065309 1.15749 0.0295392 1.36845 0.33361L9.03231 11.1853L16.6962 0.33361C16.9154 0.0323288 17.1986 -0.065309 17.5455 0.0434871C17.8925 0.163442 18.0646 0.406141 18.0646 0.771584V18.9266C18.0646 19.1386 17.9924 19.3171 17.8453 19.4622C17.6982 19.61 17.5206 19.6826 17.3124 19.6826C17.1014 19.6826 16.9238 19.61 16.7794 19.4622C16.6323 19.3143 16.5601 19.1358 16.5601 18.9266V3.1372L9.64852 12.9289C9.49308 13.1409 9.28768 13.2441 9.03231 13.2441C8.77694 13.2441 8.57153 13.1381 8.41609 12.9289L1.50446 3.1372V18.9266C1.50446 19.1386 1.43229 19.3171 1.28518 19.4622C1.13806 19.6073 0.960413 19.6826 0.752231 19.6826Z" fill="var(--fill-0, #1A507A)"/>
<path id="Vector_2" d="M41.3115 1.07287C41.2283 0.88038 41.2255 0.687895 41.2977 0.49541C41.3698 0.302924 41.5031 0.160652 41.6946 0.0685939C41.8861 -0.0150954 42.0777 -0.0150954 42.2692 0.0685939C42.4607 0.141125 42.6023 0.275028 42.6939 0.467513L49.9053 17.0408L57.1167 0.467513C57.2 0.275028 57.336 0.141125 57.5275 0.0685939C57.719 -0.0150954 57.9106 -0.0150954 58.1021 0.0685939C58.2936 0.160652 58.4296 0.302924 58.5129 0.49541C58.5851 0.687895 58.5823 0.88038 58.499 1.07287L50.5881 19.2279C50.4604 19.5291 50.2328 19.6826 49.9025 19.6826C49.575 19.6826 49.3418 19.5319 49.2058 19.2279L41.3115 1.07287Z" fill="var(--fill-0, #1A507A)"/>
<path id="Vector_3" d="M78.1458 12.3095C78.1458 14.3348 77.4241 16.0728 75.9835 17.5234C74.5512 18.9628 72.8219 19.6826 70.7956 19.6826C68.7804 19.6826 67.0511 18.9628 65.6077 17.5234C64.1754 16.0756 63.4593 14.3376 63.4593 12.3095V0.771584C63.4593 0.559571 63.5315 0.381034 63.6786 0.235973C63.8257 0.0881216 64.0033 0.0155906 64.2115 0.0155906C64.4225 0.0155906 64.6001 0.0881216 64.7445 0.235973C64.8916 0.383824 64.9637 0.562361 64.9637 0.771584V12.3095C64.9637 13.9247 65.5328 15.3028 66.6736 16.4494C67.8144 17.5959 69.1857 18.1678 70.7928 18.1678C72.4083 18.1678 73.7851 17.5959 74.9259 16.4494C76.0668 15.3028 76.6358 13.9247 76.6358 12.3095V0.771584C76.6358 0.559571 76.708 0.381034 76.8551 0.235973C77.0022 0.0881216 77.1799 0.0155906 77.388 0.0155906C77.5879 0.0155906 77.7655 0.0881216 77.921 0.235973C78.0681 0.383824 78.1403 0.562361 78.1403 0.771584V12.3095H78.1458Z" fill="var(--fill-0, #1A507A)"/>
<path id="Vector_4" d="M99.7717 12.3095C99.7717 14.3348 99.05 16.0728 97.6094 17.5234C96.1771 18.9628 94.4478 19.6826 92.4215 19.6826C90.4063 19.6826 88.677 18.9628 87.2336 17.5234C85.8013 16.0756 85.0852 14.3376 85.0852 12.3095V0.771584C85.0852 0.559571 85.1573 0.381034 85.3044 0.235973C85.4516 0.0881216 85.6292 0.0155906 85.8374 0.0155906C86.0483 0.0155906 86.226 0.0881216 86.3703 0.235973C86.5175 0.383824 86.5896 0.562361 86.5896 0.771584V12.3095C86.5896 13.9247 87.1586 15.3028 88.2995 16.4494C89.4403 17.5959 90.8115 18.1678 92.4187 18.1678C94.0342 18.1678 95.411 17.5959 96.5518 16.4494C97.6927 15.3028 98.2617 13.9247 98.2617 12.3095V0.771584C98.2617 0.559571 98.3339 0.381034 98.481 0.235973C98.6281 0.0881216 98.8057 0.0155906 99.0139 0.0155906C99.2138 0.0155906 99.3914 0.0881216 99.5469 0.235973C99.694 0.383824 99.7662 0.562361 99.7662 0.771584V12.3095H99.7717Z" fill="var(--fill-0, #1A507A)"/>
<path id="Vector_5" d="M114.866 18.1678C115.907 18.1678 116.795 17.7968 117.534 17.0547C118.264 16.3211 118.627 15.4312 118.627 14.3878C118.627 13.3417 118.261 12.4546 117.534 11.7209C116.795 10.9789 115.904 10.6079 114.866 10.6079H111.28C109.828 10.6079 108.588 10.089 107.558 9.05404C106.528 8.01908 106.012 6.77211 106.012 5.31312C106.012 3.85414 106.528 2.60717 107.558 1.57221C108.588 0.537254 109.828 0.0183802 111.28 0.0183802H114.866C116.326 0.0183802 117.567 0.537254 118.589 1.57221C119.618 2.60717 120.135 3.85414 120.135 5.31312C120.135 5.52514 120.062 5.70367 119.915 5.84874C119.768 5.99659 119.591 6.06912 119.382 6.06912C119.183 6.06912 119.005 5.99659 118.849 5.84874C118.702 5.70088 118.63 5.52235 118.63 5.31312C118.63 4.26701 118.264 3.37432 117.537 2.63228C116.798 1.8986 115.907 1.53316 114.869 1.53316H111.283C110.242 1.53316 109.356 1.90139 108.629 2.63228C107.891 3.37432 107.522 4.2698 107.522 5.31312C107.522 6.35924 107.891 7.24914 108.629 7.98002C109.359 8.72207 110.245 9.09309 111.283 9.09309H114.869C116.329 9.09309 117.57 9.61196 118.591 10.6469C119.621 11.6819 120.137 12.9289 120.137 14.3878C120.137 15.8468 119.621 17.0938 118.591 18.1287C117.57 19.1637 116.329 19.6826 114.869 19.6826H111.283C109.831 19.6826 108.59 19.1637 107.56 18.1287C106.531 17.0938 106.014 15.8468 106.014 14.3878C106.014 14.1758 106.087 13.9973 106.234 13.8522C106.381 13.7044 106.558 13.6318 106.767 13.6318C106.978 13.6318 107.155 13.7044 107.3 13.8522C107.447 14.0001 107.519 14.1786 107.519 14.3878C107.519 15.434 107.888 16.3238 108.626 17.0547C109.356 17.7968 110.242 18.1678 111.28 18.1678H114.866Z" fill="var(--fill-0, #1A507A)"/>
<path id="Vector_6" d="M40.2151 18.6225L32.3042 0.467513C32.1765 0.166231 31.9489 0.012801 31.6186 0.012801C31.2911 0.012801 31.0579 0.163441 30.9219 0.467513L23.0249 18.6225C22.9416 18.815 22.9388 19.0075 23.011 19.2C23.0832 19.3925 23.2164 19.5291 23.4079 19.6128C23.5078 19.6575 23.6078 19.6826 23.7077 19.6826C24.0352 19.6826 24.2684 19.5319 24.4044 19.2279L26.8554 13.59L27.4994 12.1171L31.6186 2.65459L35.7378 12.1171L36.3818 13.59L38.8328 19.2279C38.9161 19.4203 39.0521 19.5543 39.2436 19.6268C39.4351 19.6993 39.6266 19.6965 39.8182 19.6128C40.0097 19.5291 40.1457 19.3925 40.229 19.2C40.3012 19.0075 40.2956 18.815 40.2151 18.6225Z" fill="var(--fill-0, #1A507A)"/>
</g>
</svg>
